<?xml version="1.0" encoding="UTF-8" standalone="no"?>
<svg
   xmlns:dc="http://purl.org/dc/elements/1.1/"
   xmlns:cc="http://creativecommons.org/ns#"
   xmlns:rdf="http://www.w3.org/1999/02/22-rdf-syntax-ns#"
   xmlns:svg="http://www.w3.org/2000/svg"
   xmlns="http://www.w3.org/2000/svg"
   xmlns:xlink="http://www.w3.org/1999/xlink"
   id="f20e0c25-d928-42cc-98d1-13cc230663ea"
   data-name="Layer 1"
   width="820.16"
   height="780.81"
   viewBox="0 0 820.16 780.81"
   version="1.1">
  <metadata
     id="metadata1090">
    <rdf:RDF>
      <cc:Work
         rdf:about="">
        <dc:format>image/svg+xml</dc:format>
        <dc:type
           rdf:resource="http://purl.org/dc/dcmitype/StillImage" />
        <dc:title>no data</dc:title>
      </cc:Work>
    </rdf:RDF>
  </metadata>
  <defs
     id="defs1023">
    <linearGradient
       id="07332201-7176-49c2-9908-6dc4a39c4716"
       x1="539.63"
       y1="734.6"
       x2="539.63"
       y2="151.19"
       gradientTransform="translate(-3.62 1.57)"
       gradientUnits="userSpaceOnUse">
      <stop
         offset="0"
         stop-color="gray"
         stop-opacity="0.25"
         id="stop1011" />
      <stop
         offset="0.54"
         stop-color="gray"
         stop-opacity="0.12"
         id="stop1013" />
      <stop
         offset="1"
         stop-color="gray"
         stop-opacity="0.1"
         id="stop1015" />
    </linearGradient>
    <linearGradient
       id="0ee1ab3f-7ba2-4205-9d4a-9606ad702253"
       x1="540.17"
       y1="180.2"
       x2="540.17"
       y2="130.75"
       gradientTransform="translate(-63.92 7.85)"
       xlink:href="#07332201-7176-49c2-9908-6dc4a39c4716" />
    <linearGradient
       id="abca9755-bed1-4a97-b027-7f02ee3ffa09"
       x1="540.17"
       y1="140.86"
       x2="540.17"
       y2="82.43"
       gradientTransform="translate(-84.51 124.6) rotate(-12.11)"
       xlink:href="#07332201-7176-49c2-9908-6dc4a39c4716" />
    <linearGradient
       id="2632d424-e666-4ee4-9508-a494957e14ab"
       x1="476.4"
       y1="710.53"
       x2="476.4"
       y2="127.12"
       xlink:href="#07332201-7176-49c2-9908-6dc4a39c4716" />
    <linearGradient
       id="97571ef7-1c83-4e06-b701-c2e47e77dca3"
       x1="476.94"
       y1="156.13"
       x2="476.94"
       y2="106.68"
       gradientTransform="matrix(1, 0, 0, 1, 0, 0)"
       xlink:href="#07332201-7176-49c2-9908-6dc4a39c4716" />
    <linearGradient
       id="7d32e13e-a0c7-49c4-af0e-066a2f8cb76e"
       x1="666.86"
       y1="176.39"
       x2="666.86"
       y2="117.95"
       gradientTransform="matrix(1, 0, 0, 1, 0, 0)"
       xlink:href="#07332201-7176-49c2-9908-6dc4a39c4716" />
    <linearGradient
       y2="151.19"
       x2="539.63"
       y1="734.6"
       x1="539.63"
       gradientTransform="translate(-281.96243,5.9952364)"
       gradientUnits="userSpaceOnUse"
       id="linearGradient852"
       xlink:href="#07332201-7176-49c2-9908-6dc4a39c4716" />
  </defs>
  <title
     id="title1025">no data</title>
  <rect
     x="317.5"
     y="142.55"
     width="437.02"
     height="603.82"
     transform="translate(-271.22 62.72) rotate(-12.11)"
     fill="#e0e0e0"
     id="rect1027" />
  <rect
     id="rect1029"
     transform="rotate(-12.11)"
     height="583.40997"
     width="422.25"
     y="157.18523"
     x="46.547581"
     style="fill:url(#linearGradient852)" />
  <rect
     x="329.81"
     y="157.1"
     width="411.5"
     height="570.52"
     transform="translate(-270.79 62.58) rotate(-12.11)"
     fill="#fafafa"
     id="rect1033" />
  <rect
     x="374.18"
     y="138.6"
     width="204.14"
     height="49.45"
     transform="translate(-213.58 43.93) rotate(-12.11)"
     fill="url(#0ee1ab3f-7ba2-4205-9d4a-9606ad702253)"
     id="rect1035" />
  <path
     d="M460.93,91.9c-15.41,3.31-25.16,18.78-21.77,34.55s18.62,25.89,34,22.58,25.16-18.78,21.77-34.55S476.34,88.59,460.93,91.9ZM470.6,137A16.86,16.86,0,1,1,483.16,117,16.66,16.66,0,0,1,470.6,137Z"
     transform="translate(-189.92 -59.59)"
     fill="url(#abca9755-bed1-4a97-b027-7f02ee3ffa09)"
     id="path1037" />
  <rect
     x="375.66"
     y="136.55"
     width="199.84"
     height="47.27"
     transform="translate(-212.94 43.72) rotate(-12.11)"
     fill="#003d8a"
     id="rect1039" />
  <path
     d="M460.93,91.9a27.93,27.93,0,1,0,33.17,21.45A27.93,27.93,0,0,0,460.93,91.9ZM470.17,135a16.12,16.12,0,1,1,12.38-19.14A16.12,16.12,0,0,1,470.17,135Z"
     transform="translate(-189.92 -59.59)"
     fill="#003d8a"
     id="path1041" />
  <rect
     x="257.89"
     y="116.91"
     width="437.02"
     height="603.82"
     fill="#e0e0e0"
     id="rect1043" />
  <rect
     id="rect1045"
     height="583.40997"
     width="422.25"
     y="127.12"
     x="265.28"
     style="fill:url(#2632d424-e666-4ee4-9508-a494957e14ab)" />
  <rect
     x="270.65"
     y="131.42"
     width="411.5"
     height="570.52"
     fill="#fff"
     id="rect1049" />
  <rect
     x="374.87"
     y="106.68"
     width="204.14"
     height="49.45"
     fill="url(#97571ef7-1c83-4e06-b701-c2e47e77dca3)"
     id="rect1051" />
  <path
     d="M666.86,118c-15.76,0-28.54,13.08-28.54,29.22s12.78,29.22,28.54,29.22,28.54-13.08,28.54-29.22S682.62,118,666.86,118Zm0,46.08a16.86,16.86,0,1,1,16.46-16.86A16.66,16.66,0,0,1,666.86,164Z"
     transform="translate(-189.92 -59.59)"
     fill="url(#7d32e13e-a0c7-49c4-af0e-066a2f8cb76e)"
     id="path1053" />
  <rect
     x="377.02"
     y="104.56"
     width="199.84"
     height="47.27"
     fill="#003d8a"
     id="rect1055" />
  <path
     d="M666.86,118a27.93,27.93,0,1,0,27.93,27.93A27.93,27.93,0,0,0,666.86,118Zm0,44.05A16.12,16.12,0,1,1,683,145.89,16.12,16.12,0,0,1,666.86,162Z"
     transform="translate(-189.92 -59.59)"
     fill="#003d8a"
     id="path1057" />
  <rect
     id="rect1059"
     height="21.33"
     width="3.76"
     y="737.04999"
     x="15.27"
     style="fill:#47e6b1" />
  <rect
     id="rect1061"
     transform="rotate(90)"
     height="21.33"
     width="3.76"
     y="-27.819975"
     x="745.84003"
     style="fill:#47e6b1" />
  <rect
     id="rect1065"
     height="21.33"
     width="3.76"
     x="451.48999"
     y="0"
     style="fill:#47e6b1" />
  <rect
     id="rect1067"
     transform="rotate(90)"
     height="21.33"
     width="3.76"
     y="-464.04001"
     x="8.7800245"
     style="fill:#47e6b1" />
  <path
     d="M961,832.15a4.61,4.61,0,0,1-2.57-5.57,2.22,2.22,0,0,0,.1-.51h0a2.31,2.31,0,0,0-4.15-1.53h0a2.22,2.22,0,0,0-.26.45,4.61,4.61,0,0,1-5.57,2.57,2.22,2.22,0,0,0-.51-.1h0a2.31,2.31,0,0,0-1.53,4.15h0a2.22,2.22,0,0,0,.45.26,4.61,4.61,0,0,1,2.57,5.57,2.22,2.22,0,0,0-.1.51h0a2.31,2.31,0,0,0,4.15,1.53h0a2.22,2.22,0,0,0,.26-.45,4.61,4.61,0,0,1,5.57-2.57,2.22,2.22,0,0,0,.51.1h0a2.31,2.31,0,0,0,1.53-4.15h0A2.22,2.22,0,0,0,961,832.15Z"
     transform="translate(-189.92 -59.59)"
     fill="#4d8af0"
     opacity="0.5"
     id="path1071" />
  <path
     d="M326.59,627.09a4.61,4.61,0,0,1-2.57-5.57,2.22,2.22,0,0,0,.1-.51h0a2.31,2.31,0,0,0-4.15-1.53h0a2.22,2.22,0,0,0-.26.45,4.61,4.61,0,0,1-5.57,2.57,2.22,2.22,0,0,0-.51-.1h0a2.31,2.31,0,0,0-1.53,4.15h0a2.22,2.22,0,0,0,.45.26,4.61,4.61,0,0,1,2.57,5.57,2.22,2.22,0,0,0-.1.51h0a2.31,2.31,0,0,0,4.15,1.53h0a2.22,2.22,0,0,0,.26-.45A4.61,4.61,0,0,1,325,631.4a2.22,2.22,0,0,0,.51.1h0a2.31,2.31,0,0,0,1.53-4.15h0A2.22,2.22,0,0,0,326.59,627.09Z"
     transform="translate(-189.92 -59.59)"
     fill="#fdd835"
     opacity="0.5"
     id="path1073" />
  <path
     d="M855,127.77a4.61,4.61,0,0,1-2.57-5.57,2.22,2.22,0,0,0,.1-.51h0a2.31,2.31,0,0,0-4.15-1.53h0a2.22,2.22,0,0,0-.26.45,4.61,4.61,0,0,1-5.57,2.57,2.22,2.22,0,0,0-.51-.1h0a2.31,2.31,0,0,0-1.53,4.15h0a2.22,2.22,0,0,0,.45.26,4.61,4.61,0,0,1,2.57,5.57,2.22,2.22,0,0,0-.1.51h0a2.31,2.31,0,0,0,4.15,1.53h0a2.22,2.22,0,0,0,.26-.45,4.61,4.61,0,0,1,5.57-2.57,2.22,2.22,0,0,0,.51.1h0a2.31,2.31,0,0,0,1.53-4.15h0A2.22,2.22,0,0,0,855,127.77Z"
     transform="translate(-189.92 -59.59)"
     fill="#fdd835"
     opacity="0.5"
     id="path1075" />
  <circle
     cx="812.64"
     cy="314.47"
     r="7.53"
     fill="#f55f44"
     opacity="0.5"
     id="circle1077" />
  <circle
     cx="230.73"
     cy="746.65"
     r="7.53"
     fill="#f55f44"
     opacity="0.5"
     id="circle1079" />
  <circle
     cx="735.31"
     cy="477.23"
     r="7.53"
     fill="#f55f44"
     opacity="0.5"
     id="circle1081" />
  <circle
     cx="87.14"
     cy="96.35"
     r="7.53"
     fill="#4d8af0"
     opacity="0.5"
     id="circle1083" />
  <circle
     cx="7.53"
     cy="301.76"
     r="7.53"
     fill="#47e6b1"
     opacity="0.5"
     id="circle1085" />
</svg>
